<svg width="200" height="200" viewBox="0 0 200 200" fill="none" xmlns="http://www.w3.org/2000/svg">
<g clip-path="url(#clip0_7_21)">
<rect width="200" height="200" fill="white"/>
<circle cx="101.142" cy="78" r="42" fill="#D9D9D9"/>
<path d="M60.0711 43.9289L76.8014 48.4118L64.5539 60.6593L60.0711 43.9289Z" fill="#D9D9D9"/>
<path d="M140.213 43.9289L135.73 60.6592L123.483 48.4118L140.213 43.9289Z" fill="#D9D9D9"/>
<path d="M139.786 26.7184C140.603 26.8104 141.268 26.9048 141.773 27C141.268 27.0952 140.603 27.1896 139.786 27.2816C137.676 27.5191 134.614 27.734 130.817 27.9148C123.227 28.2762 112.735 28.5 101.142 28.5C89.5495 28.5 79.0578 28.2762 71.4674 27.9148C67.6707 27.734 64.6079 27.5191 62.4986 27.2816C61.681 27.1896 61.0162 27.0952 60.5115 27C61.0162 26.9048 61.681 26.8104 62.4986 26.7184C64.6079 26.4809 67.6707 26.266 71.4674 26.0852C79.0578 25.7238 89.5495 25.5 101.142 25.5C112.735 25.5 123.227 25.7238 130.817 26.0852C134.614 26.266 137.676 26.4809 139.786 26.7184Z" stroke="#D9D9D9"/>
<circle cx="100" cy="234" r="103" fill="#D9D9D9"/>
</g>
<defs>
<clipPath id="clip0_7_21">
<rect width="200" height="200" fill="white"/>
</clipPath>
</defs>
</svg>
